HIERARCHY
ROOT Hips
{
	OFFSET -0.001795 -0.223333 0.028219
	CHANNELS 6 Xposition Yposition Zposition Zrotation Yrotation Xrotation 
	JOINT LeftUpLeg
	{
		OFFSET 0.069520 -0.091406 -0.006815
		CHANNELS 3 Zrotation Yrotation Xrotation
		JOINT LeftLeg
		{
			OFFSET 0.034277 -0.375199 -0.004496
			CHANNELS 3 Zrotation Yrotation Xrotation
			JOINT LeftFoot
			{
				OFFSET -0.013596 -0.397961 -0.043693
				CHANNELS 3 Zrotation Yrotation Xrotation
				JOINT LeftToe
				{
					OFFSET 0.026358 -0.055791 0.119288
					CHANNELS 3 Zrotation Yrotation Xrotation
					End Site
					{
						OFFSET 0.000000 0.000000 0.000000
					}
				}
			}
		}
	}
	JOINT RightUpLeg
	{
		OFFSET -0.067670 -0.090522 -0.004320
		CHANNELS 3 Zrotation Yrotation Xrotation
		JOINT RightLeg
		{
			OFFSET -0.038290 -0.382569 -0.008850
			CHANNELS 3 Zrotation Yrotation Xrotation
			JOINT RightFoot
			{
				OFFSET 0.015774 -0.398415 -0.042312
				CHANNELS 3 Zrotation Yrotation Xrotation
				JOINT RightToe
				{
					OFFSET -0.025372 -0.048144 0.123348
					CHANNELS 3 Zrotation Yrotation Xrotation
					End Site
					{
						OFFSET 0.000000 0.000000 0.000000
					}
				}
			}
		}
	}
	JOINT Spine
	{
		OFFSET -0.002533 0.108963 -0.026696
		CHANNELS 3 Zrotation Yrotation Xrotation
		JOINT Spine1
		{
			OFFSET 0.005487 0.135180 0.001092
			CHANNELS 3 Zrotation Yrotation Xrotation
			JOINT Spine2
			{
				OFFSET 0.001457 0.052922 0.025425
				CHANNELS 3 Zrotation Yrotation Xrotation
				JOINT Neck
				{
					OFFSET -0.002778 0.213870 -0.042857
					CHANNELS 3 Zrotation Yrotation Xrotation
					JOINT Head
					{
						OFFSET 0.005152 0.064970 0.051349
						CHANNELS 3 Zrotation Yrotation Xrotation
						End Site
						{
							OFFSET 0.000000 0.000000 0.000000
						}
					}
				}
				JOINT LeftShoulder
				{
					OFFSET 0.078845 0.121749 -0.034090
					CHANNELS 3 Zrotation Yrotation Xrotation
					JOINT LeftArm
					{
						OFFSET 0.090977 0.030469 -0.008868
						CHANNELS 3 Zrotation Yrotation Xrotation
						JOINT LeftForeArm
						{
							OFFSET 0.259612 -0.012772 -0.027456
							CHANNELS 3 Zrotation Yrotation Xrotation
							JOINT LeftHand
							{
								OFFSET 0.249234 0.008986 -0.001171
								CHANNELS 3 Zrotation Yrotation Xrotation
								End Site
								{
									OFFSET 0.000000 0.000000 0.000000
								}
							}
						}
					}
				}
				JOINT RightShoulder
				{
					OFFSET -0.081759 0.118833 -0.038615
					CHANNELS 3 Zrotation Yrotation Xrotation
					JOINT RightArm
					{
						OFFSET -0.096012 0.032551 -0.009143
						CHANNELS 3 Zrotation Yrotation Xrotation
						JOINT RightForeArm
						{
							OFFSET -0.253742 -0.013329 -0.021401
							CHANNELS 3 Zrotation Yrotation Xrotation
							JOINT RightHand
							{
								OFFSET -0.255298 0.007772 -0.005559
								CHANNELS 3 Zrotation Yrotation Xrotation
								End Site
								{
									OFFSET 0.000000 0.000000 0.000000
								}
							}
						}
					}
				}
			}
		}
	}
}
MOTION
Frames: 6
Frame Time: 0.050000
0.000000 0.878384 0.000000 -1.106014 -7.542369 6.586245 6.756607 -0.359810 -27.813186 -6.351064 2.682383 33.773567 5.060318 9.639019 -5.782271 0.000000 0.000000 0.000000 -3.069581 3.617709 -35.039700 7.918602 -0.648723 45.318203 -8.583444 -21.258764 -3.228500 0.000000 0.000000 0.000000 1.431412 -0.979981 25.906856 -4.742550 1.560360 -38.332314 -1.257196 6.023354 30.617165 8.080719 -2.482675 -30.208121 0.000000 0.000000 0.000000 -7.285401 14.099804 -6.725601 -44.327105 4.687108 -9.195273 11.528967 2.925532 0.325283 0.000000 0.000000 0.000000 16.765266 -18.637058 -10.804946 48.147788 -14.241211 -12.387620 -9.506987 4.862225 0.090220 0.000000 0.000000 0.000000 
0.000023 0.879645 0.015729 -1.366792 -8.327288 8.159176 7.461632 -0.153665 -26.640074 -7.449124 3.051029 30.983863 5.439176 10.379918 -7.476170 0.000000 0.000000 0.000000 -4.452130 3.465824 -35.941557 9.513776 -1.331156 46.146569 -8.570664 -21.296329 -3.626192 0.000000 0.000000 0.000000 3.190435 -1.309229 23.103112 -5.413813 1.661329 -39.011770 -0.614025 6.805257 30.208078 6.079199 -1.114880 -31.553012 0.000000 0.000000 0.000000 -3.533542 17.737279 -7.617260 -37.753064 3.481720 -7.309786 6.560690 8.916174 0.215019 0.000000 0.000000 0.000000 10.673362 -24.332904 -12.334667 41.395806 -16.081332 -10.762350 -9.812404 1.041885 0.219402 0.000000 0.000000 0.000000 
-0.001041 0.891496 0.030973 -1.098675 -9.175917 7.029158 6.276525 -0.400045 -22.610794 -6.733255 2.636896 28.355862 5.784525 11.583645 -5.628748 0.000000 0.000000 0.000000 -4.588999 2.999336 -31.721955 9.059455 -0.916483 42.189035 -8.935480 -22.115188 -0.425447 0.000000 0.000000 0.000000 4.206962 -1.365861 20.118007 -5.756204 1.743505 -39.282969 -0.931900 7.646354 30.918549 5.540471 -1.006638 -29.980057 0.000000 0.000000 0.000000 0.907465 17.182187 -6.425811 -29.802717 0.291703 -5.180835 14.871279 13.982935 1.423874 0.000000 0.000000 0.000000 5.831526 -24.161300 -10.854987 33.267034 -14.047395 -8.082911 -12.021939 -2.370290 0.483904 0.000000 0.000000 0.000000 
-0.003303 0.906618 0.043993 -1.378087 -11.305529 6.701098 5.359218 -0.463680 -18.777928 -5.639707 2.149627 24.764339 6.587898 13.795240 -2.623999 0.000000 0.000000 0.000000 -3.716148 3.043604 -29.194050 7.064276 0.284158 38.323029 -8.195388 -20.507234 1.874029 0.000000 0.000000 0.000000 4.056834 -1.193640 18.460700 -5.048141 1.834061 -41.791664 -0.056738 9.832739 32.910599 3.574890 0.011031 -27.169003 0.000000 0.000000 0.000000 6.353921 16.672379 -5.206640 -21.929322 -2.327603 -3.533653 17.142502 11.413027 1.382112 0.000000 0.000000 0.000000 1.669766 -24.318133 -9.863810 25.668611 -8.819418 -5.374530 -12.627739 -0.821946 0.410338 0.000000 0.000000 0.000000 
-0.007132 0.921306 0.053962 -1.132431 -11.118299 5.452805 4.758961 -0.539939 -16.060068 -5.632342 1.992056 23.093588 7.094107 14.919106 2.171215 0.000000 0.000000 0.000000 -3.636085 2.445489 -24.602958 5.447739 0.650468 33.310303 -7.794135 -19.588484 3.169438 0.000000 0.000000 0.000000 4.429371 -1.175206 16.698761 -5.175465 1.811369 -40.654206 0.402046 10.068989 32.230926 3.856164 -0.386564 -24.065235 0.000000 0.000000 0.000000 11.067393 13.377068 -3.294944 -13.133818 -6.001449 -1.972857 15.715043 9.243722 0.968694 0.000000 0.000000 0.000000 -3.471027 -21.438823 -7.536764 20.202172 -4.503372 -3.683112 -12.059086 1.045985 0.265144 0.000000 0.000000 0.000000 
-0.012333 0.931159 0.060903 -0.811633 -11.333133 4.425852 4.215644 -0.567714 -13.996224 -5.923560 2.001482 21.729553 8.411013 17.332692 5.972111 0.000000 0.000000 0.000000 -3.650799 2.079875 -21.546440 4.085365 1.052899 31.192821 -7.093310 -18.079836 3.738453 0.000000 0.000000 0.000000 4.107838 -1.053397 15.524039 -5.058722 1.783911 -39.837568 0.422765 9.669362 31.308057 2.918677 -0.064953 -21.764862 0.000000 0.000000 0.000000 17.557780 10.067106 -1.675762 -9.330482 -7.733995 -1.465753 13.231911 5.238047 0.471347 0.000000 0.000000 0.000000 -6.970390 -17.377611 -5.410723 16.625611 1.264321 -2.523072 -11.309428 3.461132 0.081887 0.000000 0.000000 0.000000 
